# Blender v2.77 (sub 0) OBJ File: 'logo.blend'
# www.blender.org
mtllib logo.mtl
o Grid.009
v -0.471213 1.444180 -1.645922
v -0.466566 1.671926 -1.645922
v -0.712217 1.444180 -1.645922
v -0.757909 1.671926 -1.645922
vt 0.3524 0.6508
vt 0.2705 0.4510
vt 0.3509 0.4510
vt 0.2553 0.6508
vn 0.0000 -0.0000 1.0000
usemtl Material.001
s off
f 2/1/1 3/2/1 1/3/1
f 2/1/1 4/4/1 3/2/1
o Grid.008
v 1.497139 1.755647 -1.434515
v 1.167906 1.756516 -1.467615
v 1.174374 1.319379 -1.466965
v 1.497139 1.320668 -1.434515
vt 0.8919 0.3416
vt 1.0000 0.7243
vt 0.8897 0.7250
vt 1.0000 0.3427
vn -0.1000 0.0000 0.9950
usemtl Material.001
s off
f 7/5/2 5/6/2 6/7/2
f 7/5/2 8/8/2 5/6/2
o Grid.007
v 0.917805 1.790618 -1.535342
v 1.171649 1.789994 -1.509821
v 0.920131 1.357118 -1.535108
v 1.178077 1.355527 -1.509175
vt 0.8053 0.3747
vt 0.8895 0.7544
vt 0.8045 0.7549
vt 0.8917 0.3733
vn -0.1000 0.0000 0.9950
usemtl Material.001
s off
f 11/9/3 10/10/3 9/11/3
f 11/9/3 12/12/3 10/10/3
o Grid.006
v 0.911832 1.757965 -1.486516
v 0.606281 1.758775 -1.501881
v 0.914283 1.302936 -1.486392
v 0.611682 1.304929 -1.501609
vt 0.7044 0.3289
vt 0.8046 0.7263
vt 0.7026 0.7270
vt 0.8054 0.3271
vn -0.0502 0.0000 0.9987
usemtl Material.001
s off
f 16/13/4 13/14/4 14/15/4
f 16/13/4 15/16/4 13/14/4
o Grid.005
v 0.606978 1.821490 -1.579312
v 0.279151 1.822160 -1.579312
v 0.612668 1.343967 -1.579312
v 0.297016 1.345926 -1.579311
vt 0.5990 0.3648
vt 0.7023 0.7820
vt 0.5931 0.7826
vt 0.7042 0.3631
vn -0.0000 0.0000 1.0000
usemtl Material.001
s off
f 20/17/5 17/18/5 18/19/5
f 20/17/5 19/20/5 17/18/5
o Grid.004
v 0.279157 1.821983 -1.515850
v 0.107117 1.822317 -1.515850
v 0.297471 1.333814 -1.515850
v 0.139652 1.334805 -1.515850
vt 0.5466 0.3551
vt 0.5931 0.7824
vt 0.5357 0.7827
vt 0.5992 0.3542
vn -0.0000 0.0000 1.0000
usemtl Material.001
s off
f 24/21/6 21/22/6 22/23/6
f 24/21/6 23/24/6 21/22/6
o Grid.003
v 0.111772 1.752563 -1.601345
v -0.097571 1.753527 -1.601345
v 0.143929 1.270704 -1.601345
v -0.207435 1.273131 -1.601345
vt 0.5480 0.2989
vt 0.4675 0.7224
vt 0.4309 0.3010
vt 0.5373 0.7215
vn -0.0000 0.0000 1.0000
usemtl Material.001
s off
f 27/25/7 26/26/7 28/27/7
f 27/25/7 25/28/7 26/26/7
o Grid.002
v -0.213497 1.246625 -1.527408
v -0.080655 1.827492 -1.527408
v -0.451344 1.249474 -1.527408
v -0.439698 1.820292 -1.527408
v -0.207435 1.273131 -1.527408
vt 0.4309 0.3010
vt 0.3534 0.7810
vt 0.3496 0.2802
vt 0.4288 0.2777
vt 0.4731 0.7873
vn 0.0000 0.0000 1.0000
usemtl Material.001
s off
f 33/29/8 32/30/8 31/31/8
f 31/31/8 29/32/8 33/29/8
f 33/29/8 30/33/8 32/30/8
o Grid.001
v 0.354175 0.918392 -1.679939
v 1.734390 0.916231 -1.679939
v 1.731629 1.163418 -1.679939
v 0.351575 1.172653 -1.679939
vt 0.9191 0.2769
vt 0.4576 0.0619
vt 0.9201 0.0600
vt 0.4567 0.2850
vn 0.0000 0.0000 1.0000
usemtl Material.001
s off
f 36/34/9 34/35/9 35/36/9
f 36/34/9 37/37/9 34/35/9
o Grid
v -0.576517 0.930000 -1.529653
v -0.801831 2.070000 -1.490361
v -1.477699 0.930000 -1.372497
v -1.477699 2.070000 -1.372497
v -0.689174 1.500000 -1.510007
v -1.027108 0.930000 -1.451075
v -1.139765 2.070000 -1.431429
v -1.477699 1.500000 -1.372497
v -1.083436 1.500000 -1.441252
vt 0.1334 0.5000
vt 0.0000 0.0000
vt 0.1525 0.0000
vt 0.2668 0.5000
vt 0.3049 0.0000
vt 0.2287 1.0000
vt 0.1143 1.0000
vt 0.0000 0.5000
vt 0.0000 1.0000
vn 0.1718 0.0000 0.9851
usemtl Material.001
s off
f 46/38/10 40/39/10 43/40/10
f 42/41/10 43/40/10 38/42/10
f 39/43/10 46/38/10 42/41/10
f 44/44/10 45/45/10 46/38/10
f 46/38/10 45/45/10 40/39/10
f 42/41/10 46/38/10 43/40/10
f 39/43/10 44/44/10 46/38/10
f 44/44/10 41/46/10 45/45/10
