{
    "accessors" : [
        {
            "bufferView" : 0, 
            "componentType" : 5123, 
            "count" : 1452, 
            "max" : [
                1451
            ], 
            "min" : [
                0
            ], 
            "type" : "SCALAR"
        }, 
        {
            "bufferView" : 1, 
            "componentType" : 5126, 
            "count" : 1452, 
            "max" : [
                0.1107250303030014, 
                0.2324601411819458, 
                0.13989612460136414
            ], 
            "min" : [
                -0.1107250303030014, 
                -0.02206619828939438, 
                -0.13362865149974823
            ], 
            "type" : "VEC3"
        }, 
        {
            "bufferView" : 2, 
            "componentType" : 5126, 
            "count" : 1452, 
            "max" : [
                0.9954222440719604, 
                0.9973449110984802, 
                0.9919736385345459
            ], 
            "min" : [
                -0.9954222440719604, 
                -0.9942625164985657, 
                -0.999908447265625
            ], 
            "type" : "VEC3"
        }, 
        {
            "bufferView" : 3, 
            "componentType" : 5126, 
            "count" : 1452, 
            "max" : [
                0.9830451011657715, 
                0.25934386253356934
            ], 
            "min" : [
                0.7906787395477295, 
                0.009652137756347656
            ], 
            "type" : "VEC2"
        }, 
        {
            "bufferView" : 4, 
            "componentType" : 5126, 
            "count" : 1452, 
            "max" : [
                0.37757158279418945, 
                0.9891727287322283
            ], 
            "min" : [
                0.11300017684698105, 
                0.8297415971755981
            ], 
            "type" : "VEC2"
        }, 
        {
            "bufferView" : 5, 
            "componentType" : 5123, 
            "count" : 4572, 
            "max" : [
                4571
            ], 
            "min" : [
                0
            ], 
            "type" : "SCALAR"
        }, 
        {
            "bufferView" : 6, 
            "componentType" : 5126, 
            "count" : 4572, 
            "max" : [
                0.12441219389438629, 
                0.22090137004852295, 
                0.15168671309947968
            ], 
            "min" : [
                -0.12441220134496689, 
                -0.060611359775066376, 
                -0.11303211003541946
            ], 
            "type" : "VEC3"
        }, 
        {
            "bufferView" : 7, 
            "componentType" : 5126, 
            "count" : 4572, 
            "max" : [
                1.0, 
                1.0, 
                1.0
            ], 
            "min" : [
                -1.0, 
                -0.999969482421875, 
                -0.999908447265625
            ], 
            "type" : "VEC3"
        }, 
        {
            "bufferView" : 8, 
            "componentType" : 5126, 
            "count" : 4572, 
            "max" : [
                0.9832191467285156, 
                0.9287348091602325
            ], 
            "min" : [
                0.042437829077243805, 
                0.014391601085662842
            ], 
            "type" : "VEC2"
        }, 
        {
            "bufferView" : 9, 
            "componentType" : 5126, 
            "count" : 4572, 
            "max" : [
                0.9946396350860596, 
                0.8827328756451607
            ], 
            "min" : [
                0.006085862871259451, 
                0.048474013805389404
            ], 
            "type" : "VEC2"
        }
    ], 
    "asset" : {
        "generator" : "Khronos Blender glTF 2.0 exporter", 
        "version" : "2.0"
    }, 
    "bufferViews" : [
        {
            "buffer" : 0, 
            "byteLength" : 2904, 
            "byteOffset" : 0, 
            "target" : 34963
        }, 
        {
            "buffer" : 0, 
            "byteLength" : 17424, 
            "byteOffset" : 2904, 
            "target" : 34962
        }, 
        {
            "buffer" : 0, 
            "byteLength" : 17424, 
            "byteOffset" : 20328, 
            "target" : 34962
        }, 
        {
            "buffer" : 0, 
            "byteLength" : 11616, 
            "byteOffset" : 37752, 
            "target" : 34962
        }, 
        {
            "buffer" : 0, 
            "byteLength" : 11616, 
            "byteOffset" : 49368, 
            "target" : 34962
        }, 
        {
            "buffer" : 0, 
            "byteLength" : 9144, 
            "byteOffset" : 60984, 
            "target" : 34963
        }, 
        {
            "buffer" : 0, 
            "byteLength" : 54864, 
            "byteOffset" : 70128, 
            "target" : 34962
        }, 
        {
            "buffer" : 0, 
            "byteLength" : 54864, 
            "byteOffset" : 124992, 
            "target" : 34962
        }, 
        {
            "buffer" : 0, 
            "byteLength" : 36576, 
            "byteOffset" : 179856, 
            "target" : 34962
        }, 
        {
            "buffer" : 0, 
            "byteLength" : 36576, 
            "byteOffset" : 216432, 
            "target" : 34962
        }
    ], 
    "buffers" : [
        {
            "byteLength" : 253008, 
            "uri" : "data:application/octet-stream;base64,"
        }
    ], 
    "extensionsRequired" : [
        "KHR_materials_pbrSpecularGlossiness"
    ], 
    "extensionsUsed" : [
        "KHR_materials_pbrSpecularGlossiness"
    ], 
    "images" : [
        {
            "uri" : "avatar-diffuse.png"
        }
    ], 
    "materials" : [
        {
            "extensions" : {
                "KHR_materials_pbrSpecularGlossiness" : {
                    "diffuseTexture" : {
                        "index" : 0
                    }, 
                    "glossinessFactor" : 0.0, 
                    "specularFactor" : [
                        0.0, 
                        0.0, 
                        0.0
                    ]
                }
            }, 
            "name" : "avatar_gltf"
        }
    ], 
    "meshes" : [
        {
            "name" : "var-hair-normal", 
            "primitives" : [
                {
                    "attributes" : {
                        "NORMAL" : 2, 
                        "POSITION" : 1, 
                        "TEXCOORD_0" : 3, 
                        "TEXCOORD_1" : 4
                    }, 
                    "indices" : 0, 
                    "material" : 0
                }
            ]
        }, 
        {
            "name" : "head", 
            "primitives" : [
                {
                    "attributes" : {
                        "NORMAL" : 7, 
                        "POSITION" : 6, 
                        "TEXCOORD_0" : 8, 
                        "TEXCOORD_1" : 9
                    }, 
                    "indices" : 5, 
                    "material" : 0
                }
            ]
        }
    ], 
    "nodes" : [
        {
            "mesh" : 1, 
            "name" : "head"
        }, 
        {
            "mesh" : 0, 
            "name" : "var-hair-normal"
        }
    ], 
    "samplers" : [
        {}
    ], 
    "scene" : 0, 
    "scenes" : [
        {
            "name" : "Scene", 
            "nodes" : [
                1, 
                0
            ]
        }
    ], 
    "textures" : [
        {
            "sampler" : 0, 
            "source" : 0
        }
    ]
}
