{
    "accessors" : [
        {
            "bufferView" : 0, 
            "componentType" : 5123, 
            "count" : 2592, 
            "max" : [
                2591
            ], 
            "min" : [
                0
            ], 
            "type" : "SCALAR"
        }, 
        {
            "bufferView" : 1, 
            "componentType" : 5126, 
            "count" : 2592, 
            "max" : [
                0.16703127324581146, 
                0.04703360050916672, 
                0.11150947958230972
            ], 
            "min" : [
                -0.16733363270759583, 
                -0.3551802337169647, 
                -0.1401323527097702
            ], 
            "type" : "VEC3"
        }, 
        {
            "bufferView" : 2, 
            "componentType" : 5126, 
            "count" : 2592, 
            "max" : [
                0.999969482421875, 
                0.9921262264251709, 
                0.999053955078125
            ], 
            "min" : [
                -0.999969482421875, 
                -1.0, 
                -0.9998779296875
            ], 
            "type" : "VEC3"
        }, 
        {
            "bufferView" : 3, 
            "componentType" : 5126, 
            "count" : 2592, 
            "max" : [
                0.9768543839454651, 
                0.7179144322872162
            ], 
            "min" : [
                0.7681562900543213, 
                0.03815335035324097
            ], 
            "type" : "VEC2"
        }, 
        {
            "bufferView" : 4, 
            "componentType" : 5126, 
            "count" : 2592, 
            "max" : [
                0.9291370511054993, 
                0.33532607555389404
            ], 
            "min" : [
                0.5232428312301636, 
                0.0280611515045166
            ], 
            "type" : "VEC2"
        }, 
        {
            "bufferView" : 5, 
            "componentType" : 5121, 
            "count" : 81, 
            "max" : [
                80
            ], 
            "min" : [
                0
            ], 
            "type" : "SCALAR"
        }, 
        {
            "bufferView" : 6, 
            "componentType" : 5126, 
            "count" : 81, 
            "max" : [
                0.02814832702279091, 
                0.028761480003595352, 
                0.014957055449485779
            ], 
            "min" : [
                -0.02475871704518795, 
                -0.015262285247445107, 
                -0.011832729913294315
            ], 
            "type" : "VEC3"
        }, 
        {
            "bufferView" : 7, 
            "componentType" : 5126, 
            "count" : 81, 
            "max" : [
                0.8424947261810303, 
                0.9719142317771912, 
                0.9065347909927368
            ], 
            "min" : [
                -0.8684645295143127, 
                -0.9719142913818359, 
                -0.46282970905303955
            ], 
            "type" : "VEC3"
        }, 
        {
            "bufferView" : 8, 
            "componentType" : 5126, 
            "count" : 81, 
            "max" : [
                0.625, 
                1.0
            ], 
            "min" : [
                0.0, 
                0.0
            ], 
            "type" : "VEC2"
        }, 
        {
            "bufferView" : 9, 
            "componentType" : 5126, 
            "count" : 81, 
            "max" : [
                0.6691429018974304, 
                0.2749587297439575
            ], 
            "min" : [
                0.5983999371528625, 
                0.21345150470733643
            ], 
            "type" : "VEC2"
        }
    ], 
    "asset" : {
        "generator" : "Khronos Blender glTF 2.0 exporter", 
        "version" : "2.0"
    }, 
    "bufferViews" : [
        {
            "buffer" : 0, 
            "byteLength" : 5184, 
            "byteOffset" : 0, 
            "target" : 34963
        }, 
        {
            "buffer" : 0, 
            "byteLength" : 31104, 
            "byteOffset" : 5184, 
            "target" : 34962
        }, 
        {
            "buffer" : 0, 
            "byteLength" : 31104, 
            "byteOffset" : 36288, 
            "target" : 34962
        }, 
        {
            "buffer" : 0, 
            "byteLength" : 20736, 
            "byteOffset" : 67392, 
            "target" : 34962
        }, 
        {
            "buffer" : 0, 
            "byteLength" : 20736, 
            "byteOffset" : 88128, 
            "target" : 34962
        }, 
        {
            "buffer" : 0, 
            "byteLength" : 81, 
            "byteOffset" : 108864, 
            "target" : 34963
        }, 
        {
            "buffer" : 0, 
            "byteLength" : 972, 
            "byteOffset" : 108948, 
            "target" : 34962
        }, 
        {
            "buffer" : 0, 
            "byteLength" : 972, 
            "byteOffset" : 109920, 
            "target" : 34962
        }, 
        {
            "buffer" : 0, 
            "byteLength" : 648, 
            "byteOffset" : 110892, 
            "target" : 34962
        }, 
        {
            "buffer" : 0, 
            "byteLength" : 648, 
            "byteOffset" : 111540, 
            "target" : 34962
        }
    ], 
    "buffers" : [
        {
            "byteLength" : 112188, 
            "uri" : "data:application/octet-stream;base64,"
        }
    ], 
    "extensionsRequired" : [
        "KHR_materials_pbrSpecularGlossiness"
    ], 
    "extensionsUsed" : [
        "KHR_materials_pbrSpecularGlossiness"
    ], 
    "images" : [
        {
            "uri" : "avatar-diffuse.png"
        }
    ], 
    "materials" : [
        {
            "extensions" : {
                "KHR_materials_pbrSpecularGlossiness" : {
                    "diffuseTexture" : {
                        "index" : 0
                    }, 
                    "glossinessFactor" : 0.0, 
                    "specularFactor" : [
                        0.0, 
                        0.0, 
                        0.0
                    ]
                }
            }, 
            "name" : "avatar_gltf"
        }
    ], 
    "meshes" : [
        {
            "name" : "body", 
            "primitives" : [
                {
                    "attributes" : {
                        "NORMAL" : 2, 
                        "POSITION" : 1, 
                        "TEXCOORD_0" : 3, 
                        "TEXCOORD_1" : 4
                    }, 
                    "indices" : 0, 
                    "material" : 0
                }
            ]
        }, 
        {
            "name" : "Cube", 
            "primitives" : [
                {
                    "attributes" : {
                        "NORMAL" : 7, 
                        "POSITION" : 6, 
                        "TEXCOORD_0" : 8, 
                        "TEXCOORD_1" : 9
                    }, 
                    "indices" : 5, 
                    "material" : 0
                }
            ]
        }
    ], 
    "nodes" : [
        {
            "mesh" : 0, 
            "name" : "body", 
            "translation" : [
                -1.4551915228366852e-11, 
                1.862645149230957e-09, 
                -0.0
            ]
        }, 
        {
            "mesh" : 1, 
            "name" : "Cube", 
            "translation" : [
                0.05357222259044647, 
                -0.07474319636821747, 
                0.09557393193244934
            ]
        }
    ], 
    "samplers" : [
        {}
    ], 
    "scene" : 0, 
    "scenes" : [
        {
            "name" : "Scene", 
            "nodes" : [
                1, 
                0
            ]
        }
    ], 
    "textures" : [
        {
            "sampler" : 0, 
            "source" : 0
        }
    ]
}
