# Blender v2.77 (sub 0) OBJ File: 'ui_test.blend'
# www.blender.org
o uitest_uitestmesh
v -0.000000 0.064389 -0.250013
v -0.000000 0.129281 -0.288472
v 0.013508 0.063946 -0.248759
v 0.024795 0.128469 -0.286169
v 0.026496 0.062635 -0.245043
v 0.048637 0.126063 -0.279349
v 0.038466 0.060507 -0.239009
v 0.070610 0.122155 -0.268273
v 0.048958 0.057642 -0.230889
v 0.089870 0.116897 -0.253367
v 0.057569 0.054151 -0.220995
v 0.105676 0.110489 -0.235205
v 0.063967 0.050169 -0.209707
v 0.117421 0.103179 -0.214484
v 0.067907 0.045848 -0.197458
v 0.124653 0.095247 -0.192000
v 0.069238 0.041354 -0.184720
v 0.127095 0.086997 -0.168617
v 0.067907 0.036860 -0.171982
v 0.124653 0.078748 -0.145234
v 0.063967 0.032539 -0.159733
v 0.117421 0.070816 -0.122751
v 0.057569 0.028556 -0.148445
v 0.105676 0.063506 -0.102029
v 0.048958 0.025066 -0.138550
v 0.089870 0.057098 -0.083867
v 0.038466 0.022201 -0.130430
v 0.070610 0.051840 -0.068961
v 0.026496 0.020072 -0.124397
v 0.048637 0.047932 -0.057885
v 0.013508 0.018761 -0.120681
v 0.024795 0.045526 -0.051065
v -0.000000 0.018319 -0.119426
v -0.000000 0.044713 -0.048762
v -0.013508 0.018761 -0.120681
v -0.024795 0.045526 -0.051065
v -0.026496 0.020072 -0.124397
v -0.048637 0.047932 -0.057885
v -0.038466 0.022201 -0.130430
v -0.070610 0.051840 -0.068961
v -0.048958 0.025066 -0.138550
v -0.089870 0.057098 -0.083867
v -0.057569 0.028556 -0.148445
v -0.105676 0.063506 -0.102029
v -0.063967 0.032539 -0.159733
v -0.117421 0.070816 -0.122751
v -0.067907 0.036860 -0.171982
v -0.124653 0.078748 -0.145235
v -0.069238 0.041354 -0.184720
v -0.127095 0.086998 -0.168617
v -0.067907 0.045848 -0.197458
v -0.124653 0.095247 -0.192000
v -0.063967 0.050169 -0.209707
v -0.117420 0.103179 -0.214484
v -0.057569 0.054151 -0.220995
v -0.105676 0.110489 -0.235205
v -0.048958 0.057642 -0.230889
v -0.089870 0.116897 -0.253367
v -0.038466 0.060507 -0.239009
v -0.070610 0.122155 -0.268273
v -0.026496 0.062635 -0.245043
v -0.048637 0.126063 -0.279349
v -0.013507 0.063946 -0.248759
v -0.024795 0.128469 -0.286169
vt 0.5262 0.2846
vt 0.4512 0.0001
vt 0.5496 0.0001
vt 0.4822 0.2843
vt 0.5656 0.7216
vt 0.7364 0.9418
vt 0.6454 0.9794
vt 0.6434 0.6810
vt 0.6065 0.7051
vt 0.6749 0.6502
vt 0.8183 0.8873
vt 0.6997 0.6139
vt 0.8880 0.8178
vt 0.7170 0.5736
vt 0.9427 0.7360
vt 0.7260 0.5306
vt 0.9805 0.6452
vt 0.7264 0.4868
vt 0.9998 0.5488
vt 0.7182 0.4437
vt 0.9999 0.4504
vt 0.7016 0.4030
vt 0.9808 0.3539
vt 0.6774 0.3664
vt 0.9432 0.2631
vt 0.6465 0.3352
vt 0.8885 0.1813
vt 0.6100 0.3106
vt 0.8189 0.1117
vt 0.6462 0.0194
vt 0.7371 0.0571
vt 0.5694 0.2935
vt 0.4388 0.2926
vt 0.2635 0.0569
vt 0.3545 0.0193
vt 0.3611 0.3333
vt 0.3979 0.3092
vt 0.3296 0.3641
vt 0.1815 0.1115
vt 0.3048 0.4005
vt 0.1118 0.1811
vt 0.0193 0.3540
vt 0.0570 0.2630
vt 0.2876 0.4410
vt 0.0001 0.4505
vt 0.2782 0.5279
vt 0.2786 0.4840
vt 0.0194 0.6454
vt 0.0001 0.5490
vt 0.3030 0.6117
vt 0.2865 0.5711
vt 0.1119 0.8180
vt 0.0571 0.7363
vt 0.3580 0.6795
vt 0.3271 0.6483
vt 0.2633 0.9419
vt 0.1815 0.8874
vt 0.4350 0.7209
vt 0.3944 0.7040
vt 0.4506 0.9985
vt 0.3542 0.9794
vt 0.4782 0.7297
vt 0.5489 0.9985
vt 0.5223 0.7299
vn -0.1868 0.9267 -0.3260
vn -0.0631 0.5088 0.8586
vn -0.1868 0.5170 0.8353
vn -0.3033 0.5331 0.7898
vn -0.4082 0.5564 0.7237
vn -0.4974 0.5861 0.6396
vn -0.5675 0.6210 0.5407
vn -0.6158 0.6597 0.4308
vn -0.6404 0.7009 0.3141
vn -0.6404 0.7429 0.1952
vn -0.6158 0.7840 0.0785
vn -0.5675 0.8228 -0.0314
vn -0.4974 0.8577 -0.1303
vn -0.4082 0.8874 -0.2144
vn -0.3033 0.9107 -0.2805
vn -0.0631 0.9349 -0.3492
vn 0.0631 0.9349 -0.3492
vn 0.1868 0.9267 -0.3260
vn 0.3033 0.9107 -0.2805
vn 0.4082 0.8874 -0.2144
vn 0.4974 0.8577 -0.1303
vn 0.5675 0.8228 -0.0314
vn 0.6158 0.7840 0.0785
vn 0.6404 0.7429 0.1952
vn 0.6404 0.7009 0.3141
vn 0.6158 0.6597 0.4308
vn 0.5675 0.6210 0.5407
vn 0.4974 0.5861 0.6396
vn 0.4082 0.5564 0.7237
vn 0.3033 0.5331 0.7898
vn 0.1868 0.5170 0.8353
vn 0.0631 0.5088 0.8586
vn 0.0000 0.9430 0.3327
s off
f 29/1/1 32/2/1 30/3/1
f 29/1/1 31/4/1 32/2/1
f 1/5/2 4/6/2 2/7/2
f 5/8/3 4/6/3 3/9/3
f 7/10/4 6/11/4 5/8/4
f 9/12/5 8/13/5 7/10/5
f 11/14/6 10/15/6 9/12/6
f 13/16/7 12/17/7 11/14/7
f 15/18/8 14/19/8 13/16/8
f 17/20/9 16/21/9 15/18/9
f 19/22/10 18/23/10 17/20/10
f 21/24/11 20/25/11 19/22/11
f 23/26/12 22/27/12 21/24/12
f 25/28/13 24/29/13 23/26/13
f 25/28/14 28/30/14 26/31/14
f 29/1/15 28/30/15 27/32/15
f 33/33/16 32/2/16 31/4/16
f 33/33/17 36/34/17 34/35/17
f 37/36/18 36/34/18 35/37/18
f 39/38/19 38/39/19 37/36/19
f 41/40/20 40/41/20 39/38/20
f 41/40/21 44/42/21 42/43/21
f 43/44/22 46/45/22 44/42/22
f 47/46/23 46/45/23 45/47/23
f 47/46/24 50/48/24 48/49/24
f 51/50/25 50/48/25 49/51/25
f 51/50/26 54/52/26 52/53/26
f 55/54/27 54/52/27 53/55/27
f 55/54/28 58/56/28 56/57/28
f 59/58/29 58/56/29 57/59/29
f 59/58/30 62/60/30 60/61/30
f 61/62/31 64/63/31 62/60/31
f 1/5/32 64/63/32 63/64/32
f 35/37/33 19/22/33 3/9/33
f 1/5/2 3/9/2 4/6/2
f 5/8/3 6/11/3 4/6/3
f 7/10/4 8/13/4 6/11/4
f 9/12/5 10/15/5 8/13/5
f 11/14/6 12/17/6 10/15/6
f 13/16/7 14/19/7 12/17/7
f 15/18/8 16/21/8 14/19/8
f 17/20/9 18/23/9 16/21/9
f 19/22/10 20/25/10 18/23/10
f 21/24/11 22/27/11 20/25/11
f 23/26/12 24/29/12 22/27/12
f 25/28/13 26/31/13 24/29/13
f 25/28/14 27/32/14 28/30/14
f 29/1/15 30/3/15 28/30/15
f 33/33/16 34/35/16 32/2/16
f 33/33/17 35/37/17 36/34/17
f 37/36/18 38/39/18 36/34/18
f 39/38/19 40/41/19 38/39/19
f 41/40/20 42/43/20 40/41/20
f 41/40/21 43/44/21 44/42/21
f 43/44/22 45/47/22 46/45/22
f 47/46/23 48/49/23 46/45/23
f 47/46/24 49/51/24 50/48/24
f 51/50/25 52/53/25 50/48/25
f 51/50/26 53/55/26 54/52/26
f 55/54/27 56/57/27 54/52/27
f 55/54/28 57/59/28 58/56/28
f 59/58/29 60/61/29 58/56/29
f 59/58/30 61/62/30 62/60/30
f 61/62/31 63/64/31 64/63/31
f 1/5/32 2/7/32 64/63/32
f 3/9/33 1/5/33 63/64/33
f 63/64/33 61/62/33 3/9/33
f 59/58/33 57/59/33 55/54/33
f 55/54/33 53/55/33 59/58/33
f 51/50/33 49/51/33 47/46/33
f 47/46/33 45/47/33 51/50/33
f 43/44/33 41/40/33 39/38/33
f 39/38/33 37/36/33 35/37/33
f 35/37/33 33/33/33 31/4/33
f 31/4/33 29/1/33 27/32/33
f 27/32/33 25/28/33 19/22/33
f 23/26/33 21/24/33 19/22/33
f 19/22/33 17/20/33 15/18/33
f 15/18/33 13/16/33 11/14/33
f 11/14/33 9/12/33 3/9/33
f 7/10/33 5/8/33 3/9/33
f 3/9/33 61/62/33 59/58/33
f 59/58/33 53/55/33 51/50/33
f 51/50/33 45/47/33 43/44/33
f 43/44/33 39/38/33 35/37/33
f 35/37/33 31/4/33 27/32/33
f 25/28/33 23/26/33 19/22/33
f 19/22/33 15/18/33 3/9/33
f 9/12/33 7/10/33 3/9/33
f 3/9/33 59/58/33 35/37/33
f 51/50/33 43/44/33 35/37/33
f 35/37/33 27/32/33 19/22/33
f 15/18/33 11/14/33 3/9/33
f 59/58/33 51/50/33 35/37/33
